<mxfile host="app.diagrams.net" modified="2021-05-17T00:18:49.838Z" agent="5.0 (Windows NT 10.0; Win64; x64) AppleWebKit/537.36 (KHTML, like Gecko) Chrome/90.0.4430.212 Safari/537.36" etag="2gvUPhfgDfYFMpY694YB" version="14.6.13" type="github">
  <diagram name="Page-1" id="f1b7ffb7-ca1e-a977-7cf5-a751b3c06c05">
    <mxGraphModel dx="1422" dy="794" grid="1" gridSize="10" guides="1" tooltips="1" connect="1" arrows="1" fold="1" page="1" pageScale="1" pageWidth="826" pageHeight="1169" background="#ffffff" math="0" shadow="0">
      <root>
        <mxCell id="0" />
        <mxCell id="1" parent="0" />
        <mxCell id="Sd2tZ3bKALMnqHNlc7l4-76" style="edgeStyle=orthogonalEdgeStyle;rounded=0;orthogonalLoop=1;jettySize=auto;html=1;" edge="1" parent="1" source="Sd2tZ3bKALMnqHNlc7l4-61">
          <mxGeometry relative="1" as="geometry">
            <mxPoint x="335" y="570" as="targetPoint" />
          </mxGeometry>
        </mxCell>
        <mxCell id="Sd2tZ3bKALMnqHNlc7l4-61" value="" style="strokeWidth=1;shadow=0;dashed=0;align=center;html=1;shape=mxgraph.mockup.containers.browserWindow;rSize=0;strokeColor=#666666;strokeColor2=#008cff;strokeColor3=#c4c4c4;mainText=,;recursiveResize=0;" vertex="1" parent="1">
          <mxGeometry x="10" y="10" width="650" height="650" as="geometry" />
        </mxCell>
        <mxCell id="Sd2tZ3bKALMnqHNlc7l4-62" value="Page 1" style="strokeWidth=1;shadow=0;dashed=0;align=center;html=1;shape=mxgraph.mockup.containers.anchor;fontSize=17;fontColor=#666666;align=left;" vertex="1" parent="Sd2tZ3bKALMnqHNlc7l4-61">
          <mxGeometry x="60" y="12" width="110" height="26" as="geometry" />
        </mxCell>
        <mxCell id="Sd2tZ3bKALMnqHNlc7l4-63" value="https://www.draw.io" style="strokeWidth=1;shadow=0;dashed=0;align=center;html=1;shape=mxgraph.mockup.containers.anchor;rSize=0;fontSize=17;fontColor=#666666;align=left;" vertex="1" parent="Sd2tZ3bKALMnqHNlc7l4-61">
          <mxGeometry x="130" y="60" width="250" height="26" as="geometry" />
        </mxCell>
        <mxCell id="Sd2tZ3bKALMnqHNlc7l4-69" value="&lt;font style=&quot;font-size: 30px ; line-height: 120%&quot;&gt;Harry Potter&lt;/font&gt;" style="text;html=1;align=center;verticalAlign=middle;whiteSpace=wrap;rounded=0;shadow=0;sketch=0;glass=0;strokeColor=#000000;fillColor=#ffffff;" vertex="1" parent="Sd2tZ3bKALMnqHNlc7l4-61">
          <mxGeometry x="10" y="120" width="630" height="50" as="geometry" />
        </mxCell>
        <mxCell id="Sd2tZ3bKALMnqHNlc7l4-70" value="" style="whiteSpace=wrap;html=1;aspect=fixed;shadow=0;glass=0;sketch=0;strokeColor=#000000;" vertex="1" parent="Sd2tZ3bKALMnqHNlc7l4-61">
          <mxGeometry x="10" y="180" width="160" height="160" as="geometry" />
        </mxCell>
        <mxCell id="Sd2tZ3bKALMnqHNlc7l4-71" value="" style="rounded=0;whiteSpace=wrap;html=1;shadow=0;glass=0;sketch=0;strokeColor=#000000;fillColor=#ffffff;" vertex="1" parent="Sd2tZ3bKALMnqHNlc7l4-61">
          <mxGeometry x="10" y="350" width="160" height="130" as="geometry" />
        </mxCell>
        <mxCell id="Sd2tZ3bKALMnqHNlc7l4-72" value="" style="rounded=0;whiteSpace=wrap;html=1;shadow=0;glass=0;sketch=0;strokeColor=#000000;fillColor=#ffffff;" vertex="1" parent="Sd2tZ3bKALMnqHNlc7l4-61">
          <mxGeometry x="180" y="180" width="450" height="160" as="geometry" />
        </mxCell>
        <mxCell id="Sd2tZ3bKALMnqHNlc7l4-73" value="" style="rounded=0;whiteSpace=wrap;html=1;shadow=0;glass=0;sketch=0;strokeColor=#000000;fillColor=#ffffff;" vertex="1" parent="Sd2tZ3bKALMnqHNlc7l4-61">
          <mxGeometry x="180" y="350" width="320" height="130" as="geometry" />
        </mxCell>
        <mxCell id="Sd2tZ3bKALMnqHNlc7l4-74" value="" style="whiteSpace=wrap;html=1;aspect=fixed;shadow=0;glass=0;sketch=0;strokeColor=#000000;fillColor=#ffffff;" vertex="1" parent="Sd2tZ3bKALMnqHNlc7l4-61">
          <mxGeometry x="510" y="350" width="130" height="130" as="geometry" />
        </mxCell>
        <mxCell id="Sd2tZ3bKALMnqHNlc7l4-75" value="" style="rounded=0;whiteSpace=wrap;html=1;shadow=0;glass=0;sketch=0;strokeColor=#000000;fillColor=#ffffff;" vertex="1" parent="Sd2tZ3bKALMnqHNlc7l4-61">
          <mxGeometry x="10" y="490" width="630" height="90" as="geometry" />
        </mxCell>
        <mxCell id="Sd2tZ3bKALMnqHNlc7l4-77" value="" style="rounded=0;whiteSpace=wrap;html=1;shadow=0;glass=0;sketch=0;strokeColor=#000000;fillColor=#ffffff;" vertex="1" parent="Sd2tZ3bKALMnqHNlc7l4-61">
          <mxGeometry x="10" y="590" width="630" height="40" as="geometry" />
        </mxCell>
        <mxCell id="Sd2tZ3bKALMnqHNlc7l4-79" value="Text" style="text;html=1;strokeColor=none;fillColor=none;align=center;verticalAlign=middle;whiteSpace=wrap;rounded=0;shadow=0;glass=0;sketch=0;" vertex="1" parent="Sd2tZ3bKALMnqHNlc7l4-61">
          <mxGeometry x="180" y="180" width="450" height="160" as="geometry" />
        </mxCell>
        <mxCell id="Sd2tZ3bKALMnqHNlc7l4-80" value="Text" style="text;html=1;strokeColor=none;fillColor=none;align=center;verticalAlign=middle;whiteSpace=wrap;rounded=0;shadow=0;glass=0;sketch=0;" vertex="1" parent="Sd2tZ3bKALMnqHNlc7l4-61">
          <mxGeometry x="10" y="350" width="160" height="130" as="geometry" />
        </mxCell>
        <mxCell id="Sd2tZ3bKALMnqHNlc7l4-82" value="Text" style="text;html=1;strokeColor=none;fillColor=none;align=center;verticalAlign=middle;whiteSpace=wrap;rounded=0;shadow=0;glass=0;sketch=0;" vertex="1" parent="Sd2tZ3bKALMnqHNlc7l4-61">
          <mxGeometry x="10" y="490" width="630" height="90" as="geometry" />
        </mxCell>
        <mxCell id="Sd2tZ3bKALMnqHNlc7l4-83" value="Text" style="text;html=1;strokeColor=none;fillColor=none;align=center;verticalAlign=middle;whiteSpace=wrap;rounded=0;shadow=0;glass=0;sketch=0;" vertex="1" parent="Sd2tZ3bKALMnqHNlc7l4-61">
          <mxGeometry x="10" y="590" width="630" height="40" as="geometry" />
        </mxCell>
      </root>
    </mxGraphModel>
  </diagram>
</mxfile>
